<?xml version="1.0" encoding="UTF-8"?>
<svg width="45px" height="45px" viewBox="0 0 45 45" version="1.1" xmlns="http://www.w3.org/2000/svg" xmlns:xlink="http://www.w3.org/1999/xlink">
    <!-- Generator: Sketch 47.1 (45422) - http://www.bohemiancoding.com/sketch -->
    
    <desc>Created with Sketch.</desc>
    <defs></defs>
    <g id="Application-icons" stroke="none" stroke-width="1" fill="none" fill-rule="evenodd">
        <g id="MCP-application-icons" transform="translate(-10.000000, -280.000000)" fill-rule="nonzero">
            <g id="Group-11" transform="translate(10.000000, 280.000000)">
                <g id="I_addNE">
                    <path d="M41.25,45 L3.75,45 C1.65,45 0,43.35 0,41.25 L0,3.75 C0,1.65 1.65,0 3.375,0 L40.875,0 C43.35,0 45,1.65 45,3.75 L45,41.25 C45,43.35 43.35,45 41.25,45 Z" id="Shape" fill="#009EEF"></path>
                    <g id="Group" transform="translate(9.000000, 9.000000)">
                        <rect id="Rectangle-path" fill="#F1F1F1" opacity="0.35" x="0" y="0" width="27" height="27"></rect>
                        <rect id="Rectangle-path" fill="#FFFFFF" opacity="0.4" x="8.16666667" y="6.94444444" width="3.11111111" height="16.3333333"></rect>
                        <rect id="Rectangle-path" fill="#FFFFFF" opacity="0.4" x="3.5" y="6.94444444" width="3.11111111" height="16.3333333"></rect>
                        <rect id="Rectangle-path" fill="#FFFFFF" opacity="0.4" x="12.8333333" y="6.94444444" width="3.11111111" height="16.3333333"></rect>
                        <rect id="Rectangle-path" fill="#FFFFFF" opacity="0.4" x="17.5" y="6.94444444" width="3.11111111" height="16.3333333"></rect>
                        <rect id="Rectangle-path" fill="#FFFFFF" opacity="0.4" x="22.1666667" y="6.94444444" width="3.11111111" height="16.3333333"></rect>
                        <circle id="Oval" fill="#FFFFFF" cx="23.5" cy="3.5" r="1.5"></circle>
                    </g>
                </g>
                <path d="M27.6,45 L41.2,45 C43.3,45 45,43.3 45,41.3 L45,32.25 L45,23.2 L36,9 L36,36 L9,36 L14,45 L27.6,45 Z" id="Combined-Shape" fill-opacity="0.15" fill="#000000"></path>
            </g>
        </g>
    </g>
</svg>
